<svg version="1.1" xmlns="http://www.w3.org/2000/svg" xmlns:xlink="http://www.w3.org/1999/xlink" width="380" height="200"><defs></defs><g transform="translate(0,0)"><g><rect fill="#FFFFFF" stroke="none" x="0" y="0" width="380" height="200"></rect></g><g transform="translate(0,0) matrix(1,0,0,1,20,140)"><g><g transform="translate(0,0) scale(1,0.4)"><g><path fill="none" stroke="none" d="M 10 0 L 90 0 Q 100 0 100 10 L 100 90 Q 100 100 90 100 L 10 100 Q 0 100 0 90 L 0 10 Q 0 0 10 0 Z"></path><g transform="scale(1,2.5)"><path fill="#0099CC" stroke="#0E75AB" d="M 10 0 L 90 0 Q 100 0 100 10 L 100 30 Q 100 40 90 40 L 10 40 Q 0 40 0 30 L 0 10 Q 0 0 10 0 Z" stroke-miterlimit="10" stroke-width="2"></path></g></g></g></g></g><g transform="scale(1,1) matrix(1,0,0,1,22,140) translate(2,13)"><text fill="rgb(255, 255, 255)" stroke="none" font-family="Arial" font-size="12px" font-style="normal" font-weight="normal" text-decoration="none" x="19.000000000000007" y="11">spray-can</text></g><g transform="translate(0,0) matrix(1,0,0,1,260,80)"><g><g transform="translate(0,0) scale(1,0.4)"><g><path fill="none" stroke="none" d="M 10 0 L 90 0 Q 100 0 100 10 L 100 90 Q 100 100 90 100 L 10 100 Q 0 100 0 90 L 0 10 Q 0 0 10 0 Z"></path><g transform="scale(1,2.5)"><path fill="#0099CC" stroke="#0E75AB" d="M 10 0 L 90 0 Q 100 0 100 10 L 100 30 Q 100 40 90 40 L 10 40 Q 0 40 0 30 L 0 10 Q 0 0 10 0 Z" stroke-miterlimit="10" stroke-width="2"></path></g></g></g></g></g><g transform="scale(1,1) matrix(1,0,0,1,262,80) translate(2,13)"><text fill="rgb(255, 255, 255)" stroke="none" font-family="Arial" font-size="12px" font-style="normal" font-weight="normal" text-decoration="none" x="10.000000000000007" y="11">spray-routing</text></g><g transform="translate(0,0) matrix(1,0,0,1,139.99999999999997,80)"><g><g transform="translate(0,0) scale(1,0.4)"><g><path fill="none" stroke="none" d="M 10 0 L 90 0 Q 100 0 100 10 L 100 90 Q 100 100 90 100 L 10 100 Q 0 100 0 90 L 0 10 Q 0 0 10 0 Z"></path><g transform="scale(1,2.5)"><path fill="#0099CC" stroke="#0E75AB" d="M 10 0 L 90 0 Q 100 0 100 10 L 100 30 Q 100 40 90 40 L 10 40 Q 0 40 0 30 L 0 10 Q 0 0 10 0 Z" stroke-miterlimit="10" stroke-width="2"></path></g></g></g></g></g><g transform="scale(1,1) matrix(1,0,0,1,141.99999999999997,80) translate(2,13)"><text fill="rgb(255, 255, 255)" stroke="none" font-family="Arial" font-size="12px" font-style="normal" font-weight="bold" text-decoration="none" x="16.500000000000007" y="11">spray-http</text></g><g transform="translate(0,0) matrix(1,0,0,1,144.66666666666669,22.666666666666664)"><g><g transform="translate(0,0) scale(1,0.4)"><g><path fill="none" stroke="none" d="M 10 0 L 90 0 Q 100 0 100 10 L 100 90 Q 100 100 90 100 L 10 100 Q 0 100 0 90 L 0 10 Q 0 0 10 0 Z"></path><g transform="scale(1,2.5)"><path fill="#0099CC" stroke="#0E75AB" d="M 10 0 L 90 0 Q 100 0 100 10 L 100 30 Q 100 40 90 40 L 10 40 Q 0 40 0 30 L 0 10 Q 0 0 10 0 Z" stroke-miterlimit="10" stroke-width="2"></path></g></g></g></g></g><g transform="scale(1,1) matrix(1,0,0,1,146.66666666666669,22.666666666666664) translate(2,13)"><text fill="rgb(255, 255, 255)" stroke="none" font-family="Arial" font-size="12px" font-style="normal" font-weight="normal" text-decoration="none" x="16.000000000000007" y="11">spray-httpx</text></g><g transform="translate(0,0) matrix(1,0,0,1,20,22.666666666666664)"><g><g transform="translate(0,0) scale(1,0.4)"><g><path fill="none" stroke="none" d="M 10 0 L 90 0 Q 100 0 100 10 L 100 90 Q 100 100 90 100 L 10 100 Q 0 100 0 90 L 0 10 Q 0 0 10 0 Z"></path><g transform="scale(1,2.5)"><path fill="#0099CC" stroke="#0E75AB" d="M 10 0 L 90 0 Q 100 0 100 10 L 100 30 Q 100 40 90 40 L 10 40 Q 0 40 0 30 L 0 10 Q 0 0 10 0 Z" stroke-miterlimit="10" stroke-width="2"></path></g></g></g></g></g><g transform="scale(1,1) matrix(1,0,0,1,22,22.666666666666664) translate(2,13)"><text fill="rgb(255, 255, 255)" stroke="none" font-family="Arial" font-size="12px" font-style="normal" font-weight="normal" text-decoration="none" x="17.500000000000007" y="11">spray-json</text></g><g transform="translate(0,0) matrix(1,0,0,1,260,20)"><g><g transform="translate(0,0) scale(1,0.4)"><g><path fill="none" stroke="none" d="M 10 0 L 90 0 Q 100 0 100 10 L 100 90 Q 100 100 90 100 L 10 100 Q 0 100 0 90 L 0 10 Q 0 0 10 0 Z"></path><g transform="scale(1,2.5)"><path fill="#0099CC" stroke="#0E75AB" d="M 10 0 L 90 0 Q 100 0 100 10 L 100 30 Q 100 40 90 40 L 10 40 Q 0 40 0 30 L 0 10 Q 0 0 10 0 Z" stroke-miterlimit="10" stroke-width="2"></path></g></g></g></g></g><g transform="scale(1,1) matrix(1,0,0,1,262,20) translate(2,13)"><text fill="rgb(255, 255, 255)" stroke="none" font-family="Arial" font-size="12px" font-style="normal" font-weight="normal" text-decoration="none" x="7.500000000000007" y="11">spray-caching</text></g><g transform="translate(0,0) matrix(1,0,0,1,20,80)"><g><g transform="translate(0,0) scale(1,0.4)"><g><path fill="none" stroke="none" d="M 10 0 L 90 0 Q 100 0 100 10 L 100 90 Q 100 100 90 100 L 10 100 Q 0 100 0 90 L 0 10 Q 0 0 10 0 Z"></path><g transform="scale(1,2.5)"><path fill="#0099CC" stroke="#0E75AB" d="M 10 0 L 90 0 Q 100 0 100 10 L 100 30 Q 100 40 90 40 L 10 40 Q 0 40 0 30 L 0 10 Q 0 0 10 0 Z" stroke-miterlimit="10" stroke-width="2"></path></g></g></g></g></g><g transform="scale(1,1) matrix(1,0,0,1,22,80) translate(2,6)"><text fill="rgb(255, 255, 255)" stroke="none" font-family="Arial" font-size="12px" font-style="normal" font-weight="normal" text-decoration="none" x="22.500000000000007" y="11">spray-io</text><text fill="#000000" stroke="none" font-family="Arial" font-size="12px" font-style="normal" font-weight="normal" text-decoration="none" x="66.5" y="11">
</text><text fill="rgb(255, 255, 255)" stroke="none" font-family="Arial" font-size="12px" font-style="normal" font-weight="normal" text-decoration="none" x="9.000000000000007" y="25">(now akka-io)</text></g><g transform="translate(0,0) matrix(1,0,0,1,260,140)"><g><g transform="translate(0,0) scale(1,0.4)"><g><path fill="none" stroke="none" d="M 10 0 L 90 0 Q 100 0 100 10 L 100 90 Q 100 100 90 100 L 10 100 Q 0 100 0 90 L 0 10 Q 0 0 10 0 Z"></path><g transform="scale(1,2.5)"><path fill="#0099CC" stroke="#0E75AB" d="M 10 0 L 90 0 Q 100 0 100 10 L 100 30 Q 100 40 90 40 L 10 40 Q 0 40 0 30 L 0 10 Q 0 0 10 0 Z" stroke-miterlimit="10" stroke-width="2"></path></g></g></g></g></g><g transform="scale(1,1) matrix(1,0,0,1,262,140) translate(2,13)"><text fill="rgb(255, 255, 255)" stroke="none" font-family="Arial" font-size="12px" font-style="normal" font-weight="normal" text-decoration="none" x="14.500000000000007" y="11">spray-client</text></g><g transform="translate(0,0) matrix(1,0,0,1,140,140)"><g><g transform="translate(0,0) scale(1,0.4)"><g><path fill="none" stroke="none" d="M 10 0 L 90 0 Q 100 0 100 10 L 100 90 Q 100 100 90 100 L 10 100 Q 0 100 0 90 L 0 10 Q 0 0 10 0 Z"></path><g transform="scale(1,2.5)"><path fill="#0099CC" stroke="#0E75AB" d="M 10 0 L 90 0 Q 100 0 100 10 L 100 30 Q 100 40 90 40 L 10 40 Q 0 40 0 30 L 0 10 Q 0 0 10 0 Z" stroke-miterlimit="10" stroke-width="2"></path></g></g></g></g></g><g transform="scale(1,1) matrix(1,0,0,1,142,140) translate(2,13)"><text fill="rgb(255, 255, 255)" stroke="none" font-family="Arial" font-size="12px" font-style="normal" font-weight="normal" text-decoration="none" x="11.000000000000007" y="11">spray-servlet</text></g></g></svg>